# xmcd
#
# Track frame offsets: 
#        150
#        48793
#        82522
#
# Disc length: 1365 seconds
#
# Revision: 0
# Processed by: cddbd v1.5.2PL0 Copyright (c) Steve Scherf et al.
# Submitted via: ExactAudioCopy v1.3
#
DISCID=0f055303
DTITLE=Damien Lopez Blues Band - Live at Cognac [CD 2)
DYEAR=2001
DGENRE=Blues
TTITLE0=Woodoo Child
TTITLE1=Riviera Paradise
TTITLE2=Say One Thing
EXTD=
EXTT0=
EXTT1=
EXTT2=
PLAYORDER=
